<mxfile host="65bd71144e">
    <diagram id="fbiER8f8U1FtoullRKwQ" name="Page-1">
        <mxGraphModel dx="576" dy="467" grid="1" gridSize="10" guides="1" tooltips="1" connect="1" arrows="1" fold="1" page="1" pageScale="1" pageWidth="850" pageHeight="1100" math="0" shadow="0">
            <root>
                <mxCell id="0"/>
                <mxCell id="1" parent="0"/>
                <mxCell id="2" value="sdfa" style="ellipse;whiteSpace=wrap;html=1;aspect=fixed;fillColor=#6a00ff;fontColor=#ffffff;strokeColor=#3700CC;" parent="1" vertex="1">
                    <mxGeometry x="10" y="40" width="180" height="180" as="geometry"/>
                </mxCell>
                <mxCell id="3" value="" style="shape=internalStorage;whiteSpace=wrap;html=1;backgroundOutline=1;fillColor=#d80073;fontColor=#ffffff;strokeColor=#A50040;" parent="1" vertex="1">
                    <mxGeometry x="230" y="90" width="80" height="80" as="geometry"/>
                </mxCell>
            </root>
        </mxGraphModel>
    </diagram>
</mxfile>